<svg fill="none" viewBox="0 0 300 300" xmlns="http://www.w3.org/2000/svg"><defs><clipPath id="a"><path d="M0 595.28h841.89V0H0v595.28z"/></clipPath></defs><g clip-path="url(#a)" transform="matrix(1.25 0 0 -1.25 -424.52 605.65)"><path d="M535.7 483.72H383.876c-23.839.032-43.416-19.273-43.451-43.118V288.777c-.03-23.847 19.276-43.426 43.118-43.457h151.826c23.844-.03 43.413 19.273 43.45 43.123v151.826c.033 23.847-19.27 43.418-43.119 43.451" fill="#00b900"/><path d="M546.03 375c0 38.839-38.935 70.436-86.797 70.436-47.856 0-86.796-31.597-86.796-70.436 0-34.819 30.879-63.979 72.59-69.493 2.826-.609 6.673-1.863 7.647-4.28.875-2.194.572-5.632.28-7.848 0 0-1.02-6.125-1.239-7.43-.378-2.194-1.744-8.582 7.518-4.678 9.264 3.903 49.987 29.433 68.196 50.393h-.003c12.579 13.793 18.604 27.792 18.604 43.336" fill="#fff"/><path d="M441.59 393.77h-6.088a1.691 1.691 0 0 1-1.692-1.687v-37.82a1.69 1.69 0 0 1 1.692-1.688h6.088c.933 0 1.69.756 1.69 1.687v37.82a1.69 1.69 0 0 1-1.69 1.688m41.91 0h-6.088a1.69 1.69 0 0 1-1.69-1.687v-22.47L458.39 393.02a1.87 1.87 0 0 1-.131.171l-.012.01a1.521 1.521 0 0 1-.102.105l-.031.028a.974.974 0 0 1-.09.075c-.013.013-.028.023-.043.035-.03.02-.058.041-.088.06a.32.32 0 0 1-.052.03c-.03.018-.06.036-.09.051-.018.009-.035.019-.053.025-.032.015-.063.03-.097.042l-.055.02c-.033.011-.066.023-.101.031-.018.007-.038.01-.058.017l-.097.022a1.047 1.047 0 0 1-.071.008c-.03.007-.06.008-.09.012-.028.003-.057.003-.087.005-.021 0-.038.003-.06.003h-6.086a1.691 1.691 0 0 1-1.692-1.687v-37.82a1.69 1.69 0 0 1 1.692-1.688h6.086a1.69 1.69 0 0 1 1.693 1.687v22.463l17.352-23.436a1.675 1.675 0 0 1 .551-.494c.017-.01.032-.017.048-.025a.715.715 0 0 1 .08-.04l.083-.035.05-.018c.04-.015.077-.027.115-.039.009 0 .017-.003.025-.005.138-.036.283-.058.433-.058h6.088c.935 0 1.69.756 1.69 1.687v37.82a1.69 1.69 0 0 1-1.69 1.688m-56.58-31.73h-16.542v30.035a1.69 1.69 0 0 1-1.69 1.69h-6.09a1.69 1.69 0 0 1-1.69-1.69v-37.817a1.682 1.682 0 0 1 .496-1.193l.025-.023a1.676 1.676 0 0 1 1.168-.473h24.323a1.69 1.69 0 0 1 1.687 1.692v6.088c0 .934-.754 1.691-1.687 1.691m90.2 22.26c.933 0 1.687.755 1.687 1.69v6.089a1.69 1.69 0 0 1-1.687 1.692h-24.325c-.455 0-.866-.183-1.17-.478-.008-.006-.016-.011-.02-.018l-.028-.03a1.68 1.68 0 0 1-.469-1.165v-37.817a1.68 1.68 0 0 1 .521-1.216 1.68 1.68 0 0 1 1.166-.473h24.325c.933 0 1.687.76 1.687 1.69v6.09c0 .933-.754 1.691-1.687 1.691h-16.54v6.393h16.54c.933 0 1.687.757 1.687 1.69v6.089a1.69 1.69 0 0 1-1.687 1.692h-16.54v6.391h16.54z" fill="#00b900"/></g></svg>